<svg width="338" height="45" viewBox="0 0 338 45" fill="none" xmlns="http://www.w3.org/2000/svg">
<path d="M178.435 4.45919V2.19771C178.435 0.981957 179.699 0 181.257 0H201.716C203.274 0 204.537 0.981957 204.537 2.19771V4.45919C204.537 5.67495 203.274 6.6569 201.716 6.6569H181.257C179.699 6.6569 178.435 5.67495 178.435 4.45919ZM267.922 0H247.462C245.904 0 244.641 0.981957 244.641 2.19771V4.45919C244.641 5.67495 245.904 6.6569 247.462 6.6569H267.922C269.48 6.6569 270.743 5.67495 270.743 4.45919V2.19771C270.743 0.981957 269.48 0 267.922 0ZM234.816 0H214.357C212.799 0 211.536 0.981957 211.536 2.19771V4.45919C211.536 5.67495 212.799 6.6569 214.357 6.6569H234.816C236.375 6.6569 237.638 5.67495 237.638 4.45919V2.19771C237.638 0.981957 236.375 0 234.816 0ZM310.851 2.19771V4.45919C310.851 5.67495 312.114 6.6569 313.673 6.6569H334.651C336.209 6.6569 337.472 5.67495 337.472 4.45919V2.19771C337.472 0.981957 336.209 0 334.651 0H313.673C312.114 0 310.851 0.981957 310.851 2.19771ZM168.611 0H147.632C146.074 0 144.811 0.981957 144.811 2.19771V4.45919C144.811 5.67495 146.074 6.6569 147.632 6.6569H168.611C170.169 6.6569 171.432 5.67495 171.432 4.45919V2.19771C171.432 0.981957 170.169 0 168.611 0ZM136.223 0H3.51252C1.95432 0 0.69104 0.981957 0.69104 2.19771V4.45919C0.69104 5.67495 1.95432 6.6569 3.51252 6.6569H136.223C137.781 6.6569 139.045 5.67495 139.045 4.45919V2.19771C139.045 0.981957 137.781 0 136.223 0ZM301.022 0H280.563C279.005 0 277.742 0.981957 277.742 2.19771V4.45919C277.742 5.67495 279.005 6.6569 280.563 6.6569H301.022C302.58 6.6569 303.844 5.67495 303.844 4.45919V2.19771C303.844 0.981957 302.58 0 301.022 0Z" fill="url(#paint0_linear_5_924)"/>
<path d="M88.0908 14.2064H85.3486C84.5827 14.2064 83.9621 14.8058 83.9621 15.5454V32.498C83.9621 33.8498 82.1222 34.3514 81.3915 33.1952L69.7798 14.844C69.529 14.4444 69.08 14.2021 68.5958 14.2021H64.5551C63.7892 14.2021 63.1685 14.8015 63.1685 15.5412V43.1083C63.1685 43.8479 63.7892 44.4473 64.5551 44.4473H67.2753C68.0412 44.4473 68.6618 43.8479 68.6618 43.1083V26.3002C68.6618 24.9484 70.5017 24.4468 71.2324 25.5988L82.778 43.8054C83.0289 44.205 83.4779 44.4473 83.9621 44.4473H88.0908C88.8567 44.4473 89.4774 43.8479 89.4774 43.1083V15.5454C89.4774 14.8058 88.8567 14.2064 88.0908 14.2064Z" fill="#231F20"/>
<path d="M119.897 14.6232C118.735 14.3214 116.182 14.1683 112.309 14.1683H103.633C102.867 14.1683 102.247 14.7677 102.247 15.5074V20.4257C102.247 21.1483 102.854 21.7349 103.602 21.7349H106.785C107.533 21.7349 108.14 21.1483 108.14 20.4257V20.1876C108.14 19.4479 108.761 18.8486 109.527 18.8486H111.525C113.885 18.8486 115.416 18.9208 116.213 19.0654C117.309 19.2567 118.234 19.7455 118.955 20.5149C119.682 21.2886 120.047 22.2833 120.047 23.465C120.047 24.4257 119.787 25.2802 119.272 26.0113C118.757 26.7382 118.035 27.2824 117.133 27.6224C116.235 27.9582 114.541 28.124 111.944 28.124H109.531C108.766 28.124 108.145 27.5247 108.145 26.785V26.5469C108.145 25.8243 107.537 25.2377 106.789 25.2377H103.607C102.858 25.2377 102.251 25.8243 102.251 26.5469V43.1084C102.251 43.8481 102.872 44.4475 103.638 44.4475H106.754C107.52 44.4475 108.14 43.8481 108.14 43.1084V34.1688C108.14 33.4291 108.761 32.8298 109.527 32.8298H112.613C115.496 32.8298 117.727 32.681 119.242 32.3919C120.329 32.1624 121.416 31.6863 122.477 30.9721C123.529 30.2622 124.414 29.2718 125.1 28.0263C125.787 26.7807 126.135 25.2207 126.135 23.38C126.135 20.9995 125.532 19.0356 124.343 17.5393C123.155 16.0472 121.658 15.061 119.897 14.6189V14.6232Z" fill="#231F20"/>
<path d="M56.2534 14.2065H33.8093C33.0435 14.2065 32.4227 14.806 32.4227 15.5456V18.4404C32.4227 19.18 33.0435 19.7795 33.8093 19.7795H56.2534C57.0192 19.7795 57.64 19.18 57.64 18.4404V15.5456C57.64 14.806 57.0192 14.2065 56.2534 14.2065Z" fill="#231F20"/>
<path d="M26.0271 39.6184H10.7489C9.55605 39.6184 8.91781 38.2581 9.70571 37.3909L26.0756 19.4351C26.3 19.1886 26.4233 18.874 26.4233 18.551V15.5456C26.4233 14.8059 25.8027 14.2065 25.0368 14.2065H2.59259C1.8267 14.2065 1.20606 14.8059 1.20606 15.5456V17.7008C1.20606 18.4404 1.8267 19.0398 2.59259 19.0398H14.8601C16.0529 19.0398 16.6912 20.3958 15.9033 21.263L0.343331 38.3771C0.123247 38.6237 0 38.934 0 39.2613V43.1126C0 43.8523 0.620637 44.4517 1.38653 44.4517H26.0271C26.793 44.4517 27.4137 43.8523 27.4137 43.1126V40.9574C27.4137 40.2178 26.793 39.6184 26.0271 39.6184Z" fill="#231F20"/>
<path d="M144.547 15.01C144.336 14.4999 143.825 14.1683 143.257 14.1683H138.706C138.134 14.1683 137.619 14.5084 137.412 15.0228L126.28 42.6238C125.923 43.5038 126.597 44.4517 127.574 44.4517H130.814C131.399 44.4517 131.918 44.0989 132.116 43.5675L134.419 37.4505H134.432L138.138 27.6437L139.604 23.7499C140.044 22.5766 141.761 22.5724 142.21 23.7414L143.772 27.8095L149.992 43.5845C150.199 44.1032 150.714 44.4475 151.29 44.4475H154.697C155.679 44.4475 156.352 43.491 155.987 42.6111L144.542 15.01H144.547Z" fill="#231F20"/>
<path d="M56.1478 38.8829H33.7037C32.9379 38.8829 32.3171 39.4824 32.3171 40.222V43.1168C32.3171 43.8564 32.9379 44.4559 33.7037 44.4559H56.1478C56.9136 44.4559 57.5344 43.8564 57.5344 43.1168V40.222C57.5344 39.4824 56.9136 38.8829 56.1478 38.8829Z" fill="#231F20"/>
<path d="M56.2534 26.5425H33.8093C33.0435 26.5425 32.4227 27.142 32.4227 27.8815V30.7764C32.4227 31.5159 33.0435 32.1154 33.8093 32.1154H56.2534C57.0192 32.1154 57.64 31.5159 57.64 30.7764V27.8815C57.64 27.142 57.0192 26.5425 56.2534 26.5425Z" fill="#231F20"/>
<path d="M246.054 26.5299H223.61C222.844 26.5299 222.223 27.1294 222.223 27.8689V30.7638C222.223 31.5033 222.844 32.1028 223.61 32.1028H246.054C246.82 32.1028 247.441 31.5033 247.441 30.7638V27.8689C247.441 27.1294 246.82 26.5299 246.054 26.5299Z" fill="#231F20"/>
<path d="M308.263 14.1683H286.233C285.467 14.1683 284.846 14.7677 284.846 15.5074V17.5095C284.846 18.2492 285.467 18.8486 286.233 18.8486H292.923C293.689 18.8486 294.31 19.4479 294.31 20.1876V43.1042C294.31 43.8438 294.93 44.4432 295.696 44.4432H298.813C299.578 44.4432 300.199 43.8438 300.199 43.1042V20.1876C300.199 19.4479 300.82 18.8486 301.586 18.8486H308.254C309.02 18.8486 309.641 18.2492 309.641 17.5095V15.5074C309.641 14.7677 309.02 14.1683 308.254 14.1683H308.263Z" fill="#231F20"/>
<path d="M277.891 14.1938H275.149C274.383 14.1938 273.763 14.7932 273.763 15.5329V32.4854C273.763 33.8372 271.923 34.3388 271.192 33.1826L259.58 14.8315C259.329 14.4319 258.88 14.1896 258.396 14.1896H254.356C253.59 14.1896 252.969 14.789 252.969 15.5286V43.0957C252.969 43.8353 253.59 44.4347 254.356 44.4347H257.076C257.842 44.4347 258.462 43.8353 258.462 43.0957V26.2876C258.462 24.9358 260.302 24.4342 261.033 25.5862L272.578 43.7971C272.829 44.1967 273.278 44.439 273.763 44.439H277.891C278.657 44.439 279.278 43.8396 279.278 43.0999V15.5329C279.278 14.7932 278.657 14.1938 277.891 14.1938Z" fill="#231F20"/>
<path d="M336.236 30.972C335.417 29.6968 334.268 28.6723 332.815 27.9369C331.341 27.1887 329.021 26.4491 325.927 25.7434C322.722 25.0123 320.746 24.3194 319.897 23.6307C319.197 23.0611 318.84 22.364 318.84 21.5563C318.84 20.6721 319.223 19.958 319.976 19.4309C321.076 18.6572 322.612 18.2661 324.532 18.2661C326.451 18.2661 327.828 18.6359 328.784 19.3628C329.492 19.9027 330.02 20.7061 330.364 21.7476C330.553 22.3172 331.121 22.687 331.741 22.6615L335.038 22.5213C335.901 22.483 336.509 21.7093 336.332 20.8932C335.923 18.9803 334.959 17.3777 333.458 16.1237C331.495 14.4786 328.515 13.6454 324.598 13.6454C322.194 13.6454 320.117 13.9982 318.426 14.6954C316.754 15.384 315.451 16.4042 314.566 17.7177C313.677 19.0355 313.228 20.4681 313.228 21.9771C313.228 24.3236 314.188 26.3471 316.076 27.9794C317.427 29.1484 319.835 30.1559 323.229 30.9678C325.949 31.6224 327.644 32.0645 328.409 32.3196C329.571 32.7192 330.368 33.1825 330.848 33.7351C331.332 34.292 331.574 34.9764 331.574 35.7628C331.574 36.9743 331.011 38.0413 329.897 38.9382C328.801 39.8224 327.164 40.273 325.033 40.273C323.017 40.273 321.384 39.7714 320.187 38.7809C319.254 38.0073 318.558 36.8893 318.114 35.444C317.925 34.8319 317.3 34.4408 316.644 34.5045L313.607 34.7893C312.77 34.8659 312.202 35.6395 312.387 36.4344C312.982 38.9467 314.144 40.9361 315.856 42.3644C317.955 44.1158 321.023 45 324.967 45C327.688 45 329.99 44.6302 331.803 43.8948C333.599 43.1721 335.008 42.0499 335.985 40.5621C336.966 39.07 337.464 37.4504 337.464 35.7458C337.464 33.8584 337.05 32.2516 336.231 30.9763L336.236 30.972Z" fill="#231F20"/>
<path d="M246.054 38.8531H223.61C222.844 38.8531 222.223 39.4527 222.223 40.1922V43.087C222.223 43.8266 222.844 44.4261 223.61 44.4261H246.054C246.82 44.4261 247.441 43.8266 247.441 43.087V40.1922C247.441 39.4527 246.82 38.8531 246.054 38.8531Z" fill="#231F20"/>
<path d="M215.273 14.1682H208.552C207.922 14.1682 207.372 14.5805 207.209 15.1672L202.882 31.0528C202.521 32.3833 200.567 32.3875 200.197 31.0528L195.818 15.1587C195.655 14.572 195.105 14.1639 194.475 14.1639H187.776C187.01 14.1639 186.389 14.7633 186.389 15.503V43.104C186.389 43.8437 187.01 44.4431 187.776 44.4431H190.439C191.205 44.4431 191.825 43.8437 191.825 43.104V29.1484C191.825 27.567 194.158 27.2907 194.559 28.821L198.362 43.4271C198.516 44.0222 199.071 44.4388 199.709 44.4388H203.323C203.956 44.4388 204.511 44.0222 204.669 43.4271L208.49 28.787C208.891 27.2567 211.224 27.5373 211.224 29.1143V43.0998C211.224 43.8394 211.844 44.4388 212.61 44.4388H215.273C216.039 44.4388 216.66 43.8394 216.66 43.0998V15.5072C216.66 14.7676 216.039 14.1682 215.273 14.1682Z" fill="#231F20"/>
<path d="M179.989 14.1683H176.543C176.05 14.1683 175.592 14.4234 175.345 14.8357L169.425 24.651C168.892 25.5352 167.576 25.5395 167.035 24.6595L160.978 14.823C160.727 14.4149 160.274 14.1683 159.785 14.1683H156.198C155.106 14.1683 154.442 15.3331 155.027 16.2258L164.927 31.342C165.067 31.5545 165.142 31.8053 165.142 32.0604V43.1127C165.142 43.8523 165.763 44.4517 166.529 44.4517H169.628C170.393 44.4517 171.014 43.8523 171.014 43.1127V31.716L171.058 31.6523L181.173 16.23C181.759 15.3373 181.094 14.1726 180.002 14.1726L179.989 14.1683Z" fill="#231F20"/>
<path d="M246.054 14.2065H223.61C222.844 14.2065 222.223 14.806 222.223 15.5456V18.4404C222.223 19.18 222.844 19.7795 223.61 19.7795H246.054C246.82 19.7795 247.441 19.18 247.441 18.4404V15.5456C247.441 14.806 246.82 14.2065 246.054 14.2065Z" fill="#231F20"/>
<defs>
<linearGradient id="paint0_linear_5_924" x1="42.0624" y1="-67.4915" x2="291.593" y2="81.6823" gradientUnits="userSpaceOnUse">
<stop offset="0.15" stop-color="#EE365F"/>
<stop offset="0.85" stop-color="#00C8FA"/>
</linearGradient>
</defs>
</svg>
