<?xml version="1.0" encoding="UTF-8"?><svg id="Layer_2" xmlns="http://www.w3.org/2000/svg" width="337.47" height="45" xmlns:xlink="http://www.w3.org/1999/xlink" viewBox="0 0 337.47 45"><defs><style>.cls-1{fill:url(#linear-gradient);}.cls-1,.cls-2{stroke-width:0px;}.cls-2{fill:#fff;}</style><linearGradient id="linear-gradient" x1="44.31" y1="117.26" x2="293.85" y2="-31.92" gradientTransform="translate(0 46) scale(1 -1)" gradientUnits="userSpaceOnUse"><stop offset=".15" stop-color="#ee365f"/><stop offset=".85" stop-color="#00c8fa"/></linearGradient></defs><g id="Layer_1-2"><path class="cls-1" d="m178.43,4.46v-2.26c0-1.22,1.26-2.2,2.82-2.2h20.46c1.56,0,2.82.98,2.82,2.2v2.26c0,1.22-1.26,2.2-2.82,2.2h-20.46c-1.56,0-2.82-.98-2.82-2.2ZM267.92,0h-20.46c-1.56,0-2.82.98-2.82,2.2v2.26c0,1.22,1.26,2.2,2.82,2.2h20.46c1.56,0,2.82-.98,2.82-2.2v-2.26c0-1.22-1.26-2.2-2.82-2.2Zm-33.11,0h-20.46c-1.56,0-2.82.98-2.82,2.2v2.26c0,1.22,1.26,2.2,2.82,2.2h20.46c1.56,0,2.82-.98,2.82-2.2v-2.26c0-1.22-1.26-2.2-2.82-2.2Zm76.04,2.2v2.26c0,1.22,1.26,2.2,2.82,2.2h20.98c1.56,0,2.82-.98,2.82-2.2v-2.26c0-1.22-1.26-2.2-2.82-2.2h-20.98c-1.56,0-2.82.98-2.82,2.2ZM168.61,0h-20.98c-1.56,0-2.82.98-2.82,2.2v2.26c0,1.22,1.26,2.2,2.82,2.2h20.98c1.56,0,2.82-.98,2.82-2.2v-2.26c0-1.22-1.26-2.2-2.82-2.2Zm-32.39,0H3.51C1.95,0,.69.98.69,2.2v2.26c0,1.22,1.26,2.2,2.82,2.2h132.71c1.56,0,2.82-.98,2.82-2.2v-2.26c0-1.22-1.26-2.2-2.82-2.2Zm164.8,0h-20.46c-1.56,0-2.82.98-2.82,2.2v2.26c0,1.22,1.26,2.2,2.82,2.2h20.46c1.56,0,2.82-.98,2.82-2.2v-2.26c0-1.22-1.26-2.2-2.82-2.2Z"/><path class="cls-2" d="m88.09,14.21h-2.74c-.77,0-1.39.6-1.39,1.34v16.95c0,1.35-1.84,1.85-2.57.7l-11.61-18.35c-.25-.4-.7-.64-1.18-.64h-4.04c-.77,0-1.39.6-1.39,1.34v27.57c0,.74.62,1.34,1.39,1.34h2.72c.77,0,1.39-.6,1.39-1.34v-16.81c0-1.35,1.84-1.85,2.57-.7l11.55,18.21c.25.4.7.64,1.18.64h4.13c.77,0,1.39-.6,1.39-1.34V15.55c0-.74-.62-1.34-1.39-1.34Z"/><path class="cls-2" d="m119.9,14.62c-1.16-.3-3.72-.45-7.59-.45h-8.68c-.77,0-1.39.6-1.39,1.34v4.92c0,.72.61,1.31,1.35,1.31h3.18c.75,0,1.35-.59,1.35-1.31v-.24c0-.74.62-1.34,1.39-1.34h2c2.36,0,3.89.07,4.69.22,1.1.19,2.02.68,2.74,1.45.73.77,1.09,1.77,1.09,2.95,0,.96-.26,1.82-.77,2.55-.51.73-1.24,1.27-2.14,1.61-.9.34-2.59.5-5.19.5h-2.41c-.76,0-1.39-.6-1.39-1.34v-.24c0-.72-.61-1.31-1.36-1.31h-3.18c-.75,0-1.36.59-1.36,1.31v16.56c0,.74.62,1.34,1.39,1.34h3.12c.77,0,1.39-.6,1.39-1.34v-8.94c0-.74.62-1.34,1.39-1.34h3.09c2.88,0,5.11-.15,6.63-.44,1.09-.23,2.17-.71,3.24-1.42,1.05-.71,1.94-1.7,2.62-2.95.69-1.25,1.04-2.81,1.04-4.65,0-2.38-.6-4.34-1.79-5.84-1.19-1.49-2.69-2.48-4.45-2.92h0Z"/><path class="cls-2" d="m56.25,14.21h-22.44c-.77,0-1.39.6-1.39,1.34v2.89c0,.74.62,1.34,1.39,1.34h22.44c.77,0,1.39-.6,1.39-1.34v-2.89c0-.74-.62-1.34-1.39-1.34Z"/><path class="cls-2" d="m26.03,39.62h-15.28c-1.19,0-1.83-1.36-1.04-2.23l16.37-17.96c.22-.25.35-.56.35-.88v-3.01c0-.74-.62-1.34-1.39-1.34H2.59c-.77,0-1.39.6-1.39,1.34v2.16c0,.74.62,1.34,1.39,1.34h12.27c1.19,0,1.83,1.36,1.04,2.22L.34,38.38c-.22.25-.34.56-.34.88v3.85c0,.74.62,1.34,1.39,1.34h24.64c.77,0,1.39-.6,1.39-1.34v-2.16c0-.74-.62-1.34-1.39-1.34Z"/><path class="cls-2" d="m144.55,15.01c-.21-.51-.72-.84-1.29-.84h-4.55c-.57,0-1.09.34-1.29.85l-11.13,27.6c-.36.88.32,1.83,1.29,1.83h3.24c.59,0,1.1-.35,1.3-.88l2.3-6.12h.01l3.71-9.81,1.47-3.89c.44-1.17,2.16-1.18,2.61,0l1.56,4.07,6.22,15.77c.21.52.72.86,1.3.86h3.41c.98,0,1.65-.96,1.29-1.84l-11.44-27.6h0Z"/><path class="cls-2" d="m56.15,38.88h-22.44c-.77,0-1.39.6-1.39,1.34v2.89c0,.74.62,1.34,1.39,1.34h22.44c.77,0,1.39-.6,1.39-1.34v-2.89c0-.74-.62-1.34-1.39-1.34Z"/><path class="cls-2" d="m56.25,26.54h-22.44c-.77,0-1.39.6-1.39,1.34v2.89c0,.74.62,1.34,1.39,1.34h22.44c.77,0,1.39-.6,1.39-1.34v-2.89c0-.74-.62-1.34-1.39-1.34Z"/><path class="cls-2" d="m246.05,26.53h-22.44c-.77,0-1.39.6-1.39,1.34v2.89c0,.74.62,1.34,1.39,1.34h22.44c.77,0,1.39-.6,1.39-1.34v-2.89c0-.74-.62-1.34-1.39-1.34Z"/><path class="cls-2" d="m308.26,14.17h-22.03c-.77,0-1.39.6-1.39,1.34v2c0,.74.62,1.34,1.39,1.34h6.69c.77,0,1.39.6,1.39,1.34v22.92c0,.74.62,1.34,1.39,1.34h3.12c.77,0,1.39-.6,1.39-1.34v-22.92c0-.74.62-1.34,1.39-1.34h6.67c.77,0,1.39-.6,1.39-1.34v-2c0-.74-.62-1.34-1.39-1.34h0Z"/><path class="cls-2" d="m277.89,14.19h-2.74c-.77,0-1.39.6-1.39,1.34v16.95c0,1.35-1.84,1.85-2.57.7l-11.61-18.35c-.25-.4-.7-.64-1.18-.64h-4.04c-.77,0-1.39.6-1.39,1.34v27.57c0,.74.62,1.34,1.39,1.34h2.72c.77,0,1.39-.6,1.39-1.34v-16.81c0-1.35,1.84-1.85,2.57-.7l11.55,18.21c.25.4.7.64,1.18.64h4.13c.77,0,1.39-.6,1.39-1.34V15.53c0-.74-.62-1.34-1.39-1.34Z"/><path class="cls-2" d="m336.24,30.97c-.82-1.28-1.97-2.3-3.42-3.04-1.47-.75-3.79-1.49-6.89-2.19-3.21-.73-5.18-1.42-6.03-2.11-.7-.57-1.06-1.27-1.06-2.07,0-.88.38-1.6,1.14-2.13,1.1-.77,2.64-1.16,4.56-1.16s3.3.37,4.25,1.1c.71.54,1.24,1.34,1.58,2.38.19.57.76.94,1.38.91l3.3-.14c.86-.04,1.47-.81,1.29-1.63-.41-1.91-1.37-3.52-2.87-4.77-1.96-1.65-4.94-2.48-8.86-2.48-2.4,0-4.48.35-6.17,1.05-1.67.69-2.98,1.71-3.86,3.02-.89,1.32-1.34,2.75-1.34,4.26,0,2.35.96,4.37,2.85,6,1.35,1.17,3.76,2.18,7.15,2.99,2.72.65,4.42,1.1,5.18,1.35,1.16.4,1.96.86,2.44,1.42.48.56.73,1.24.73,2.03,0,1.21-.56,2.28-1.68,3.18-1.1.88-2.73,1.33-4.86,1.33-2.02,0-3.65-.5-4.85-1.49-.93-.77-1.63-1.89-2.07-3.34-.19-.61-.81-1-1.47-.94l-3.04.28c-.84.08-1.4.85-1.22,1.65.6,2.51,1.76,4.5,3.47,5.93,2.1,1.75,5.17,2.64,9.11,2.64,2.72,0,5.02-.37,6.84-1.11,1.8-.72,3.2-1.84,4.18-3.33.98-1.49,1.48-3.11,1.48-4.82,0-1.89-.41-3.49-1.23-4.77h0Z"/><path class="cls-2" d="m246.05,38.85h-22.44c-.77,0-1.39.6-1.39,1.34v2.89c0,.74.62,1.34,1.39,1.34h22.44c.77,0,1.39-.6,1.39-1.34v-2.89c0-.74-.62-1.34-1.39-1.34Z"/><path class="cls-2" d="m215.27,14.17h-6.72c-.63,0-1.18.41-1.34,1l-4.33,15.89c-.36,1.33-2.32,1.33-2.68,0l-4.38-15.89c-.16-.59-.71-.99-1.34-.99h-6.7c-.77,0-1.39.6-1.39,1.34v27.6c0,.74.62,1.34,1.39,1.34h2.66c.77,0,1.39-.6,1.39-1.34v-13.96c0-1.58,2.33-1.86,2.73-.33l3.8,14.61c.15.6.71,1.01,1.35,1.01h3.61c.63,0,1.19-.42,1.35-1.01l3.82-14.64c.4-1.53,2.73-1.25,2.73.33v13.99c0,.74.62,1.34,1.39,1.34h2.66c.77,0,1.39-.6,1.39-1.34V15.51c0-.74-.62-1.34-1.39-1.34Z"/><path class="cls-2" d="m179.99,14.17h-3.45c-.49,0-.95.26-1.2.67l-5.92,9.82c-.53.88-1.85.89-2.39,0l-6.06-9.84c-.25-.41-.7-.65-1.19-.65h-3.59c-1.09,0-1.76,1.16-1.17,2.06l9.9,15.12c.14.21.21.46.21.72v11.05c0,.74.62,1.34,1.39,1.34h3.1c.76,0,1.39-.6,1.39-1.34v-11.4l.04-.06,10.12-15.42c.59-.89-.08-2.06-1.17-2.06h-.01Z"/><path class="cls-2" d="m246.05,14.21h-22.44c-.77,0-1.39.6-1.39,1.34v2.89c0,.74.62,1.34,1.39,1.34h22.44c.77,0,1.39-.6,1.39-1.34v-2.89c0-.74-.62-1.34-1.39-1.34Z"/></g></svg>